<svg xmlns:xlink="http://www.w3.org/1999/xlink" xmlns="http://www.w3.org/2000/svg" viewBox="0 0 34.6 39.21" width="34.6"  height="39.21" ><path fill="#95BF47" d="M30.3 7.55a.37.37 0 00-.3-.32l-3-.05s-2.34-2.27-2.56-2.5a1 1 0 00-.86-.11l-1.17.37a7.8 7.8 0 00-.57-1.38 3.92 3.92 0 00-3.51-2.43H18L17.91 1a3.1 3.1 0 00-2.45-1c-1.9.05-3.79 1.43-5.32 3.86A15.26 15.26 0 008 9.4l-3.73 1.16c-1.1.35-1.14.38-1.28 1.41C2.88 12.76 0 35 0 35l24.14 4.18L34.6 36.6zm-9.08-2.24l-1.87.58a10.2 10.2 0 00-.58-3.46c1.45.27 2.15 1.9 2.45 2.88zm-3.13 1l-4 1.25a9.63 9.63 0 012-3.95 4.23 4.23 0 011.37-1 9.05 9.05 0 01.63 3.67zm-2.59-5a1.78 1.78 0 011.14.3 5.62 5.62 0 00-1.47 1.14A11.18 11.18 0 0012.67 8L9.36 9c.64-3.07 3.21-7.65 6.14-7.73z"></path><path fill="#5E8E3E" d="M30 7.23l-3-.05s-2.34-2.27-2.56-2.5a.59.59 0 00-.33-.15v34.68l10.46-2.6L30.3 7.55a.36.36 0 00-.3-.32z"></path><path fill="#FFFFFF" d="M18.34 12.61l-1.21 4.55a6.93 6.93 0 00-3-.52c-2.35.15-2.38 1.64-2.36 2 .13 2 5.48 2.47 5.78 7.24.24 3.74-2 6.31-5.19 6.51a7.8 7.8 0 01-6-2l.82-3.47s2.12 1.6 3.83 1.5a1.51 1.51 0 001.48-1.62c-.17-2.65-4.52-2.49-4.8-6.85-.23-3.67 2.18-7.38 7.49-7.72a6.56 6.56 0 013.16.38z"></path></svg>